<svg xmlns="http://www.w3.org/2000/svg" viewBox="-207.1 403.9 20.1 34.6">
    <path fill="#fff" d="M-187,421.2c0-1.7,0-3.4,0-5.1c0-1.4,0.1-2.8-0.1-4.2c-1.2-6.7-9.2-10.2-15.2-6.5c-3.2,1.9-4.8,4.7-4.8,8.3 c0,4.5,0,9,0,13.4c0,1,0,2.1,0.1,3.1c0.8,5.2,5.9,8.9,11.3,8.2c4.9-0.7,8.6-4.6,8.7-9.4C-187,426.4-187,423.8-187,421.2 L-187,421.2z M-189.2,428.7c0,3.7-2.5,6.6-6.2,7.4c-4.2,0.9-8.7-2-9.3-6.1c-0.1-0.9-0.1-1.8-0.1-2.7c0-2,0-4.1,0-6.1 c0-2.5,0-5,0-7.5c0-3.9,2.9-7.1,6.9-7.6c4.3-0.5,8.2,2.4,8.7,6.6c0.1,1,0.1,1.9,0.1,2.9C-189.2,419.9-189.2,424.3-189.2,428.7z M-195.5,415c-0.2,0.2-0.3,0.3-0.5,0.5c0-1.3,0-2.6,0-3.8c0-0.7-0.5-1.2-1.1-1.2c-0.7,0-1.1,0.5-1.1,1.2c0,0.9,0,1.7,0,2.6l0,0 c0,0.4,0,0.8,0,1.3c-0.2-0.2-0.3-0.3-0.5-0.5c-0.3-0.2-0.6-0.2-0.9,0c-0.3,0.3-0.3,0.6-0.1,0.9c0.6,0.5,1.1,1.1,1.7,1.6 c0.1,0.1,0.1,0.2,0.2,0.2l0,0l0,0c0.1,0,0.1,0.1,0.2,0.1l0,0c0.1,0,0.2,0.1,0.4,0.1s0.4-0.1,0.6-0.2l0,0l0,0 c0.1-0.1,0.2-0.1,0.2-0.2c0.6-0.5,1.1-1.1,1.7-1.6c0.3-0.2,0.2-0.6-0.1-0.9C-194.8,414.7-195.2,414.7-195.5,415z" />
</svg>
